<svg xmlns="http://www.w3.org/2000/svg" xmlns:xlink="http://www.w3.org/1999/xlink" width="30.058" height="23.298" viewBox="0 0 30.058 23.298">
  <defs>
    <linearGradient id="linear-gradient" x1="0.5" y1="-0.002" x2="0.5" y2="1.022" gradientUnits="objectBoundingBox">
      <stop offset="0" stop-color="#ffd500"/>
      <stop offset="1" stop-color="#f50"/>
    </linearGradient>
  </defs>
  <g id="Group_6842" data-name="Group 6842" transform="translate(-25.868 -852)">
    <g id="Group_6841" data-name="Group 6841">
      <g id="Layer_1" transform="translate(24.5 813.689)">
        <circle id="Ellipse_50" data-name="Ellipse 50" cx="4" cy="4" r="4" transform="translate(18.5 38.311)" fill="#fff700"/>
        <path id="Icon_awesome-cloud" data-name="Icon awesome-cloud" d="M1.022,4.192a.959.959,0,0,1,.894-1.3.953.953,0,0,1,.532.162,1.6,1.6,0,0,1,2.98.8c0,.027,0,.054,0,.081A1.437,1.437,0,0,1,4.949,6.72H1.277a1.277,1.277,0,0,1-.255-2.528Z" transform="translate(14.368 37.036)" fill="#fff"/>
        <path id="Icon_awesome-cloud-2" data-name="Icon awesome-cloud" d="M7.229,4.867a1.292,1.292,0,0,0-1.2-1.756,1.284,1.284,0,0,0-.717.218A2.152,2.152,0,0,0,1.291,4.4c0,.036,0,.073,0,.109a1.937,1.937,0,0,0,.643,3.764H6.885a1.721,1.721,0,0,0,.344-3.408Z" transform="translate(22.197 40.061)" fill="#fff"/>
        <g id="Group_6835" data-name="Group 6835" transform="translate(3.5 41.7)">
          <path id="Path_7020" data-name="Path 7020" d="M47.679,53.237c-.244,0-.462-.037-.679-.037v3.656h1.656V53.2A8.734,8.734,0,0,1,47.679,53.237Z" transform="translate(-34.918 -48.995)" fill="none"/>
          <path id="Path_7021" data-name="Path 7021" d="M55.7,52.239V56h1.656V51.8A12.618,12.618,0,0,1,55.7,52.239Z" transform="translate(-41.255 -48.107)" fill="none"/>
          <path id="Path_7022" data-name="Path 7022" d="M29,48.7v5.338h1.792V49.651A6.907,6.907,0,0,1,29,48.7Z" transform="translate(-21.805 -46.141)" fill="none"/>
          <path id="Path_7023" data-name="Path 7023" d="M38.2,52v4.1h1.656V52.439C39.286,52.293,38.743,52.183,38.2,52Z" transform="translate(-28.507 -48.234)" fill="none"/>
          <path id="Path_7024" data-name="Path 7024" d="M11.6,55.461h2.932V51Z" transform="translate(-9.129 -47.6)" fill="none"/>
          <path id="Path_7025" data-name="Path 7025" d="M64.4,49.1v4.5h1.792V48A9.639,9.639,0,0,1,64.4,49.1Z" transform="translate(-47.593 -45.696)" fill="none"/>
          <path id="Path_7026" data-name="Path 7026" d="M77.5,55.461h2.932L77.5,51Z" transform="translate(-57.136 -47.6)" fill="none"/>
          <path id="Union_6" data-name="Union 6" d="M8904.6-157.246v-4.314h-11.377v4.314c0,.658-.407,1.206-.895,1.206s-.9-.548-.9-1.206v-4.314h-4.75c-.38,0-.68-.4-.68-.915s.3-.915.68-.915h16.128v.038h1.791v-.038h6.516c.38,0,.68.4.68.915s-.3.915-.68.915h-4.724v4.314c0,.658-.407,1.206-.9,1.206S8904.6-156.589,8904.6-157.246Z" transform="translate(-8886 171.251)" fill="#f50"/>
          <path id="Path_7030" data-name="Path 7030" d="M11.327,45.1v4.461h1.792v-5.3a8.366,8.366,0,0,0,1.792.987V49.6h.706V45.466a12.515,12.515,0,0,0,1.656.4v3.693h.733V45.9c.217,0,.434.037.679.037a8.735,8.735,0,0,0,.977-.037v3.656h.706v-3.73a8.682,8.682,0,0,0,1.656-.439v4.2h.706V45.1a11.863,11.863,0,0,0,1.792-1.06V49.6h1.765V45.1l2.932,4.461h1.195l-4.127-6.216v-.439c0-.658-.407-1.207-.9-1.207-.407,0-.733.4-.842.914a9.005,9.005,0,0,1-5.892,2.194,8.761,8.761,0,0,1-5.539-1.9,1.058,1.058,0,0,0-.9-1.17c-.489,0-.9.548-.9,1.207v.439L7.2,49.6H8.395Z" transform="translate(-5.924 -41.7)" fill="url(#linear-gradient)"/>
        </g>
        <g id="noun_waves_3564996" transform="translate(-75.474 -409.614)">
          <g id="Group_6836" data-name="Group 6836" transform="translate(81.278 464.925)">
            <path id="Path_7031" data-name="Path 7031" d="M255.286,467.881a1.783,1.783,0,0,1-1.045-.337l-.694-.5a.829.829,0,0,0-.964,0l-.691.5a1.787,1.787,0,0,1-2.087,0l-.694-.5a.829.829,0,0,0-.964,0l-.694.5a1.787,1.787,0,0,1-2.087,0l-.694-.5a.829.829,0,0,0-.964,0l-.694.5a1.787,1.787,0,0,1-2.087,0l-.694-.5a.829.829,0,0,0-.964,0l-.463.332a.481.481,0,1,1-.56-.783l.46-.332a1.787,1.787,0,0,1,2.087,0l.694.5a.829.829,0,0,0,.964,0l.694-.5a1.787,1.787,0,0,1,2.087,0l.694.5a.829.829,0,0,0,.964,0l.694-.5a1.787,1.787,0,0,1,2.087,0l.694.5a.829.829,0,0,0,.964,0l.694-.5a1.787,1.787,0,0,1,2.087,0l.694.5a.829.829,0,0,0,.964,0l.694-.5a1.787,1.787,0,0,1,2.087,0l.557.4a.481.481,0,0,1-.56.783l-.557-.4a.829.829,0,0,0-.964,0l-.694.5A1.776,1.776,0,0,1,255.286,467.881Z" transform="translate(-238.041 -465.925)" fill="#00b3ed"/>
          </g>
          <g id="Group_6837" data-name="Group 6837" transform="translate(76.841 467.096)">
            <path id="Path_7032" data-name="Path 7032" d="M96.039,545.781a1.783,1.783,0,0,1-1.045-.337l-.694-.5a.829.829,0,0,0-.964,0l-.694.5a1.787,1.787,0,0,1-2.087,0l-.694-.5a.829.829,0,0,0-.964,0l-.694.5a1.787,1.787,0,0,1-2.087,0l-.694-.5a.829.829,0,0,0-.964,0l-.694.5a1.787,1.787,0,0,1-2.087,0l-.694-.5a.829.829,0,0,0-.964,0l-.412.3a.481.481,0,1,1-.56-.783l.412-.3a1.787,1.787,0,0,1,2.087,0l.694.5a.829.829,0,0,0,.964,0l.694-.5a1.787,1.787,0,0,1,2.087,0l.694.5a.829.829,0,0,0,.964,0l.694-.5a1.787,1.787,0,0,1,2.087,0l.694.5a.829.829,0,0,0,.964,0l.694-.5a1.787,1.787,0,0,1,2.087,0l.694.5a.829.829,0,0,0,.964,0l.694-.5a1.787,1.787,0,0,1,2.087,0l.4.284a.481.481,0,1,1-.56.783l-.4-.284a.829.829,0,0,0-.964,0l-.694.5A1.809,1.809,0,0,1,96.039,545.781Z" transform="translate(-78.841 -543.825)" fill="#00b3ed"/>
          </g>
          <g id="Group_6838" data-name="Group 6838" transform="translate(85.841 469.267)">
            <path id="Path_7032-2" data-name="Path 7032" d="M96.039,545.781a1.783,1.783,0,0,1-1.045-.337l-.694-.5a.829.829,0,0,0-.964,0l-.694.5a1.787,1.787,0,0,1-2.087,0l-.694-.5a.829.829,0,0,0-.964,0l-.694.5a1.787,1.787,0,0,1-2.087,0l-.694-.5a.829.829,0,0,0-.964,0l-.694.5a1.787,1.787,0,0,1-2.087,0l-.694-.5a.829.829,0,0,0-.964,0l-.412.3a.481.481,0,1,1-.56-.783l.412-.3a1.787,1.787,0,0,1,2.087,0l.694.5a.829.829,0,0,0,.964,0l.694-.5a1.787,1.787,0,0,1,2.087,0l.694.5a.829.829,0,0,0,.964,0l.694-.5a1.787,1.787,0,0,1,2.087,0l.694.5a.829.829,0,0,0,.964,0l.694-.5a1.787,1.787,0,0,1,2.087,0l.694.5a.829.829,0,0,0,.964,0l.694-.5a1.787,1.787,0,0,1,2.087,0l.4.284a.481.481,0,1,1-.56.783l-.4-.284a.829.829,0,0,0-.964,0l-.694.5A1.809,1.809,0,0,1,96.039,545.781Z" transform="translate(-78.841 -543.825)" fill="#00b3ed"/>
          </g>
        </g>
      </g>
    </g>
  </g>
</svg>
