<svg width="38" height="38" viewBox="0 0 38 38" fill="none" xmlns="http://www.w3.org/2000/svg">
<path fill-rule="evenodd" clip-rule="evenodd" d="M13.5091 34.8105V34.7378V33.2036V28.7501C8.95125 27.3155 5.65455 23.1472 5.65455 18.2287C5.65455 12.1235 10.7341 7.17418 17 7.17418C23.2659 7.17418 28.3455 12.1235 28.3455 18.2287C28.3455 23.1472 25.0488 27.3155 20.4909 28.7501V33.2036V34.7378V34.8105H33V30.3015H26.8227C30.5394 27.4856 32.9273 23.1083 32.9273 18.1924C32.9273 9.69722 25.7964 2.81055 17 2.81055C8.20361 2.81055 1.07273 9.69722 1.07273 18.1924C1.07273 23.1083 3.46059 27.4856 7.17726 30.3015H1V34.8105H13.5091Z" fill="white"/>
</svg>
