;<svg xmlns="http://www.w3.org/2000/svg" width="13.171" height="13.645" viewBox="0 0 13.171 13.645">
  <g id="Group_6300" data-name="Group 6300" transform="translate(0)">
    <g id="Group_6297" data-name="Group 6297" transform="translate(0 0)">
      <path
        id="Path_6560"
        data-name="Path 6560"
        d="M61.856,856.545a6.823,6.823,0,0,1,0-13.645.613.613,0,0,1,.08.005h.191a.629.629,0,0,1,.428,1.089,4.532,4.532,0,0,0,4.786,7.521.628.628,0,0,1,.815.823,6.838,6.838,0,0,1-6.3,4.206ZM60.71,844.275a5.564,5.564,0,1,0,5.6,8.786,5.786,5.786,0,0,1-5.6-8.786Z"
        transform="translate(-55.031 -842.9)"
        fill="currentColor"
      ></path>
    </g>
  </g>
</svg>
