;<svg xmlns="http://www.w3.org/2000/svg" width="14.001" height="14" viewBox="0 0 14.001 14">
  <g id="Group_6296" data-name="Group 6296" transform="translate(0 0)">
    <g id="Group_6294" data-name="Group 6294" transform="translate(3.552 3.551)">
      <path
        id="Path_6558"
        data-name="Path 6558"
        d="M42.3,853.744a3.448,3.448,0,1,1,3.448-3.448A3.452,3.452,0,0,1,42.3,853.744Zm0-5.682a2.234,2.234,0,1,0,2.234,2.234A2.236,2.236,0,0,0,42.3,848.062Z"
        transform="translate(-38.854 -846.847)"
        fill="currentColor"
      ></path>
    </g>
    <g id="Group_6295" data-name="Group 6295" transform="translate(0 0)">
      <path
        id="Path_6559"
        data-name="Path 6559"
        d="M41.468,856.462a.608.608,0,0,1-.607-.607v-.71a.607.607,0,1,1,1.215,0v.71A.608.608,0,0,1,41.468,856.462Zm4.546-1.846a.606.606,0,0,1-.43-.178l-.5-.5a.608.608,0,0,1,.859-.859l.5.5a.608.608,0,0,1-.43,1.037Zm-9.091,0a.608.608,0,0,1-.43-1.037l.5-.5a.607.607,0,0,1,.858.859l-.5.5A.605.605,0,0,1,36.923,854.615Zm10.939-4.547H47.15a.607.607,0,1,1,0-1.215h.711a.607.607,0,1,1,0,1.215Zm-12.076,0h-.71a.607.607,0,1,1,0-1.215h.71a.607.607,0,1,1,0,1.215Zm9.731-4.049a.607.607,0,0,1-.429-1.037l.5-.5a.607.607,0,1,1,.858.859l-.5.5A.608.608,0,0,1,45.517,846.02Zm-8.1,0a.6.6,0,0,1-.429-.177l-.5-.5a.607.607,0,1,1,.858-.859l.5.5a.607.607,0,0,1-.429,1.037Zm4.048-1.633a.608.608,0,0,1-.607-.607v-.71a.607.607,0,0,1,1.215,0v.71A.608.608,0,0,1,41.468,844.387Z"
        transform="translate(-34.468 -842.462)"
        fill="currentColor"
      ></path>
    </g>
  </g>
</svg>
